<?xml version="1.0" encoding="utf-8"?>
<!-- Generator: Adobe Illustrator 23.0.2, SVG Export Plug-In . SVG Version: 6.00 Build 0)  -->
<svg version="1.1" id="Layer_1" xmlns="http://www.w3.org/2000/svg" xmlns:xlink="http://www.w3.org/1999/xlink" x="0px" y="0px"
	 viewBox="0 0 338 124" style="enable-background:new 0 0 338 124;" xml:space="preserve">
<style type="text/css">
	.st0{fill:#FFFFFF;}
</style>
<title>logo-naut</title>
<path class="st0" d="M167.8,74.7c0,4.5,3,8,7.8,8c4.9-0.1,9.4-2.4,12.3-6.3v-8.8c-1.3-0.8-4.5-1.8-9.4-1.8
	C172.3,65.7,167.8,68.8,167.8,74.7z"/>
<path class="st0" d="M0,0v124h338V0H0z M91.1,61.2c0,1.1-0.9,2-2,2c0,0-0.1,0-0.1,0H47.6c-1.1,0.1-2.1-0.8-2.1-1.9c0,0,0-0.1,0-0.1
	V60c0-1.1,0.9-2.1,2-2.1c0,0,0.1,0,0.1,0h41.3c1.1,0,2.1,0.9,2.1,2c0,0,0,0.1,0,0.1V61.2z M148.6,86.1c0,1.2-1,2.1-2.1,2.1h-3.6
	c-1.2,0-2.1-1-2.1-2.1V62.5c0-8.5-3.8-12.7-10.1-12.7c-8.4,0-14.4,6.4-14.4,6.4v29.9c0,1.2-1,2.1-2.1,2.1h-3.5c-1.2,0-2.1-1-2.1-2.1
	V45.6c0-1.2,1-2.1,2.1-2.1h2.1c0.9-0.1,1.6,0.5,1.8,1.3l1,3.5c4.4-3.7,9.9-5.8,15.7-5.9c13,0,17.4,8.5,17.4,20.2L148.6,86.1z
	 M195.4,86.1c0,1.2-1,2.1-2.1,2.1h-2.1c-1.2,0-1.6-0.7-1.9-1.7l-0.9-3c-3.7,3.7-8.7,5.8-13.9,5.8c-7.8,0-13.8-5.7-13.8-14.7
	c0-8.5,6.4-14.9,17.9-14.9c3.2,0.1,6.4,0.6,9.5,1.5c0.1-8.3-0.9-12.1-7.3-12.1c-4.6,0-9.1,0.9-13.4,2.5c-1.1,0.5-1.8-0.1-2.1-1.1
	l-0.9-2.8c-0.4-0.9,0-2,0.9-2.4c0.1,0,0.2-0.1,0.3-0.1c5-1.9,10.2-2.9,15.6-2.9c11.4,0,14.2,5.8,14.2,18.9L195.4,86.1z M249.3,86.1
	c0,1.2-1,2.1-2.1,2.1h-2.1c-1.2,0-1.7-0.8-2-1.9l-0.8-2.9c-3.9,3.8-9.1,6-14.6,5.9c-13,0-17.4-8.4-17.4-20.3V45.6
	c0-1.2,1-2.1,2.1-2.1h3.6c1.2,0,2.1,1,2.1,2.1v23.6c0,8.5,3.8,12.6,10.1,12.6c5.2-0.1,10-2.4,13.3-6.4V45.6c0-1.2,1-2.1,2.1-2.1h3.5
	c1.2,0,2.1,1,2.1,2.1L249.3,86.1z M291.3,85.5c-1.6,1-7.6,3.8-12.9,3.8c-9,0-10.3-5.4-10.3-12.3V50.2h-5.7c-1.2,0-2.1-0.9-2.2-2.1
	c0,0,0,0,0-0.1v-2.4c0-1.1,0.9-2.1,2-2.1c0,0,0.1,0,0.1,0h5.7V31c0-1.2,1-2.1,2.1-2.1l3.6-0.2c1.1,0.1,2,1,2,2.1v12.7h13
	c1.1-0.1,2.1,0.8,2.2,1.9c0,0.1,0,0.1,0,0.2V48c0,1.2-1,2.1-2.1,2.1l0,0h-13v26.2c0,4.5,1.1,5.4,3.7,5.4c2.8,0,6.7-1.7,8.2-2.5
	c1.7-0.9,2.1-0.2,2.7,0.7l1.7,2.8C292.9,84.1,292.5,84.7,291.3,85.5L291.3,85.5z"/>
</svg>
