<?xml version="1.0" encoding="utf-8"?>
<!-- Generator: Adobe Illustrator 23.0.2, SVG Export Plug-In . SVG Version: 6.00 Build 0)  -->
<svg version="1.1" id="Layer_1" xmlns="http://www.w3.org/2000/svg" xmlns:xlink="http://www.w3.org/1999/xlink" x="0px" y="0px"
	 viewBox="0 0 124 339.5" style="enable-background:new 0 0 124 339.5;" xml:space="preserve">
<style type="text/css">
	.st0{fill:#FFFFFF;}
</style>
<title>logo-naut</title>
<path class="st0" d="M74.7,171.7c4.5,0,8-3,8-7.8c-0.1-4.9-2.4-9.4-6.3-12.3h-8.8c-0.8,1.3-1.8,4.5-1.8,9.4
	C65.7,167.2,68.8,171.7,74.7,171.7z"/>
<path class="st0" d="M0,339.5h124V1.5H0V339.5z M61.2,248.5c1.1,0,2,0.9,2,2c0,0,0,0.1,0,0.1v41.3c0.1,1.1-0.8,2.1-1.9,2.1
	c0,0-0.1,0-0.1,0H60c-1.1,0-2.1-0.9-2.1-2c0,0,0-0.1,0-0.1v-41.3c0-1.1,0.9-2.1,2-2.1c0,0,0.1,0,0.1,0H61.2z M86.1,190.9
	c1.2,0,2.1,1,2.1,2.1v3.6c0,1.2-1,2.1-2.1,2.1H62.5c-8.5,0-12.7,3.8-12.7,10.1c0,8.4,6.4,14.4,6.4,14.4h29.9c1.2,0,2.1,1,2.1,2.1
	v3.5c0,1.2-1,2.1-2.1,2.1H45.6c-1.2,0-2.1-1-2.1-2.1v-2.1c-0.1-0.9,0.5-1.6,1.3-1.8l3.5-1c-3.7-4.4-5.8-9.9-5.9-15.7
	c0-13,8.5-17.4,20.2-17.4L86.1,190.9z M86.1,144.1c1.2,0,2.1,1,2.1,2.1v2.1c0,1.2-0.7,1.6-1.7,1.9l-3,0.9c3.7,3.7,5.8,8.7,5.8,13.9
	c0,7.8-5.7,13.8-14.7,13.8c-8.5,0-14.9-6.4-14.9-17.9c0.1-3.2,0.6-6.4,1.5-9.5c-8.3-0.1-12.1,0.9-12.1,7.3c0,4.6,0.9,9.1,2.5,13.4
	c0.5,1.1-0.1,1.8-1.1,2.1l-2.8,0.9c-0.9,0.4-2,0-2.4-0.9c0-0.1-0.1-0.2-0.1-0.3c-1.9-5-2.9-10.2-2.9-15.6c0-11.4,5.8-14.2,18.9-14.2
	L86.1,144.1z M86.1,90.2c1.2,0,2.1,1,2.1,2.1v2.1c0,1.2-0.8,1.7-1.9,2l-2.9,0.8c3.8,3.9,6,9.1,5.9,14.6c0,13-8.4,17.4-20.3,17.4
	H45.6c-1.2,0-2.1-1-2.1-2.1v-3.6c0-1.2,1-2.1,2.1-2.1h23.6c8.5,0,12.6-3.8,12.6-10.1c-0.1-5.2-2.4-10-6.4-13.3H45.6
	c-1.2,0-2.1-1-2.1-2.1v-3.5c0-1.2,1-2.1,2.1-2.1L86.1,90.2z M85.5,48.2c1,1.6,3.8,7.6,3.8,12.9c0,9-5.4,10.3-12.3,10.3H50.2v5.7
	c0,1.2-0.9,2.1-2.1,2.2c0,0,0,0-0.1,0h-2.4c-1.1,0-2.1-0.9-2.1-2c0,0,0-0.1,0-0.1v-5.7H31c-1.2,0-2.1-1-2.1-2.1l-0.2-3.6
	c0.1-1.1,1-2,2.1-2h12.7v-13c-0.1-1.1,0.8-2.1,1.9-2.2c0.1,0,0.1,0,0.2,0H48c1.2,0,2.1,1,2.1,2.1l0,0v13h26.2c4.5,0,5.4-1.1,5.4-3.7
	c0-2.8-1.7-6.7-2.5-8.2c-0.9-1.7-0.2-2.1,0.7-2.7l2.8-1.7C84.1,46.7,84.7,47,85.5,48.2L85.5,48.2z"/>
</svg>
